<?xml version="1.0" encoding="UTF-8" standalone="no"?>
<svg
   xmlns:dc="http://purl.org/dc/elements/1.1/"
   xmlns:cc="http://creativecommons.org/ns#"
   xmlns:rdf="http://www.w3.org/1999/02/22-rdf-syntax-ns#"
   xmlns:svg="http://www.w3.org/2000/svg"
   xmlns="http://www.w3.org/2000/svg"
   viewBox="0 0 200 200"
   height="200"
   width="200"
   id="svg3699"
   version="1.1">
  <metadata
     id="metadata3705">
    <rdf:RDF>
      <cc:Work
         rdf:about="">
        <dc:format>image/svg+xml</dc:format>
        <dc:type
           rdf:resource="http://purl.org/dc/dcmitype/StillImage" />
        <dc:title></dc:title>
      </cc:Work>
    </rdf:RDF>
  </metadata>
  <defs
     id="defs3703" />
  <g
     style="fill:none;fill-opacity:1;stroke:none;stroke-opacity:1"
     id="g4203">
    <path
       id="path4211"
       d="M 79.153756,198.08547 C 60.023972,193.74653 43.990028,185.00675 29.975813,171.27953 20.623949,162.11919 9.6788085,145.79355 6.5660596,136.36183 c -1.322884,-4.00838 -1.0490152,-4.91867 3.2206317,-10.70471 2.5665547,-3.47808 6.7789567,-8.35703 9.3608927,-10.84211 l 4.694431,-4.51833 4.181756,3.51872 c 5.299868,4.45954 6.863914,4.79011 24.551482,5.18913 l 14.575254,0.3288 3.968542,7.33334 c 2.182699,4.03333 7.395124,13.03333 11.583168,20 l 7.614624,12.66666 12.508249,0.4037 12.50824,0.40369 3.49226,-4.14441 3.49227,-4.14443 2.28625,5.74073 C 128.80154,168.13229 128.44805,168 152.41331,168 h 21.33333 l -2.53999,2.82912 c -8.54828,9.52137 -26.35922,20.08273 -42.53998,25.22496 -11.87016,3.77231 -37.247077,4.81347 -49.512914,2.03139 z M 180.16711,154.41356 c -0.63868,-1.69412 -3.40872,-9.533 -6.15564,-17.41972 -6.37667,-18.3081 -6.3647,-18.32717 11.51053,-18.32717 h 13.19547 l -0.88183,3.66666 c -2.7988,11.63736 -12.01223,32.38236 -15.27843,34.40099 -0.67588,0.41771 -1.75142,-0.62663 -2.3901,-2.32076 z m -82.28831,-8.74931 4.82382,-9.66908 -4.017977,-7.95956 c -2.209887,-4.37776 -4.017976,-8.27668 -4.017976,-8.66425 0,-0.38758 2.071768,-0.70469 4.603929,-0.70469 5.160494,0 11.396074,2.40974 11.396074,4.40402 0,1.63575 -14.461038,29.11242 -16.278177,30.92931 -0.733432,0.73333 0.837206,-3.01775 3.490307,-8.33575 z m 44.78787,-30.5919 c 0,-0.15412 0.69604,-1.80786 1.54677,-3.675 1.36988,-3.00657 0.80989,-4.80532 -4.89687,-15.729401 -3.54401,-6.784038 -9.28296,-17.134616 -12.75325,-23.001282 -3.47028,-5.866667 -6.20734,-10.77602 -6.08234,-10.909675 1.4243,-1.522993 36.55014,-8.838153 58.42259,-12.166844 l 7.57024,-1.152088 4.08855,8.870224 c 6.56412,14.241023 9.44808,27.761863 9.36481,43.904996 l -0.0728,14.12005 L 194.6014,100 C 191.47312,90.868575 188.20705,83.722897 186.52651,82.333333 184.1778,80.391287 180.96183,80 167.34888,80 c -12.24743,0 -16.73771,0.460296 -17.87655,1.832519 -1.17026,1.410082 -0.40266,4.945717 3.32986,15.337525 5.57324,15.516636 5.2316,16.960306 -4.19102,17.709716 -3.26948,0.26004 -5.9445,0.3467 -5.9445,0.19259 z m -27.65736,-7.17685 c -0.91154,-1.77586 -2.50522,-5.62883 -3.54152,-8.562167 C 110.4315,96.4 108.61926,91.75 107.44059,89 c -3.80386,-8.874907 -0.96159,-5.314053 4.62117,5.789496 2.98367,5.934224 5.24036,12.037194 5.01488,13.562164 -0.39127,2.64615 -0.4856,2.62534 -2.06733,-0.45616 z M 103.64392,79 c 1.35212,-3.530744 6.98835,-13.147981 7.00669,-11.955675 0.022,1.427402 -6.54692,14.289008 -7.29789,14.289008 -0.3313,0 -0.20026,-1.05 0.2912,-2.333333 z"
       style="fill:none;stroke-width:1.33333337;fill-opacity:1;stroke:none;stroke-opacity:1" />
    <path
       id="path4209"
       d="m 4.5976396,127.36143 c 0.8319212,-7.57861 19.4808574,-26.18887 39.1070724,-39.025967 9.814156,-6.419234 37.714933,-20.66615 38.660007,-19.74088 1.808849,1.770946 -3.562494,5.971114 -14.74531,11.530221 -26.073117,12.961248 -47.141998,29.130936 -57.116526,43.835086 -5.0476989,7.44117 -6.4364974,8.24114 -5.9052434,3.40154 z M 117.94517,58.577959 c -0.48337,-0.782123 -0.66878,-1.60713 -0.41202,-1.833347 0.95885,-0.844773 30.21485,-7.430601 41.13352,-9.259579 21.82366,-3.655666 23.60472,-3.77161 24.44146,-1.591094 0.561,1.461942 -0.39136,2.197864 -3.50213,2.706222 -20.02188,3.271958 -37.98397,6.657359 -46.78917,8.81858 -12.1346,2.978416 -13.67321,3.098348 -14.87166,1.159218 z M 25.333333,32.916121 c 0,-0.229466 1.95,-2.179466 4.333334,-4.333333 L 34,24.666667 30.083879,29 c -3.650375,4.039273 -4.750546,4.946203 -4.750546,3.916121 z"
       style="fill:none;stroke-width:1.33333337;fill-opacity:1;stroke:none;stroke-opacity:1" />
    <path
       id="path4207"
       d="m 128.98516,165.66667 c -1.15214,-1.28334 -3.10873,-4.87944 -4.34796,-7.99135 -1.23924,-3.11192 -2.83386,-5.29913 -3.54361,-4.86048 -0.70975,0.43865 -0.52607,-0.42644 0.40818,-1.9224 0.93425,-1.49597 2.27125,-2.36605 2.97111,-1.93352 0.69986,0.43255 0.92917,0.23096 0.50958,-0.44795 -1.03353,-1.6723 7.63652,-16.78088 8.90297,-15.51444 0.5519,0.55191 0.80346,0.35991 0.55901,-0.42666 -0.24444,-0.78657 1.26373,-5.02747 3.35151,-9.42421 3.78556,-7.97224 3.81289,-7.99493 10,-8.30485 10.29641,-0.51577 10.68318,-1.86539 5.03841,-17.581197 C 149.07679,86.79804 148.30197,83.242715 149.47233,81.832519 150.61117,80.460296 155.10145,80 167.34888,80 c 13.61932,0 16.82501,0.390376 19.16088,2.333333 2.99529,2.491467 12.15691,27.377507 12.15691,33.022287 0,3.30237 -0.0345,3.31105 -13.17008,3.31105 -18.21146,0 -18.02164,-0.40759 -10.21255,21.92856 l 6.27083,17.93628 -3.77744,4.73421 -3.77743,4.7342 -21.46001,4e-5 c -18.75124,4e-5 -21.72444,-0.29448 -23.55483,-2.33329 z M 90.201593,159 c -0.342348,-0.55 3.672242,-0.83577 8.921311,-0.63505 16.245116,0.6212 18.122876,1.19872 4.622456,1.42166 C 96.638635,159.90395 90.543941,159.55 90.201593,159 Z m 10.602417,-18.77777 c -0.37769,-0.61112 0.16051,-1.11112 1.19599,-1.11112 1.03548,0 1.57368,0.5 1.19599,1.11112 -0.37768,0.6111 -0.91588,1.1111 -1.19599,1.1111 -0.28011,0 -0.81831,-0.5 -1.19599,-1.1111 z m 9.89672,-17.06047 c -0.0534,-2.3582 -7.49093,-4.85025 -12.670811,-4.24553 -3.244588,0.37879 -4.696586,0.0127 -4.696586,-1.18396 0,-0.95275 0.15,-1.92513 0.333334,-2.16084 0.183333,-0.23572 -0.716667,-1.47857 -2,-2.76191 -2.55927,-2.55927 -3.165195,-7.47619 -0.921311,-7.47619 0.776612,0 1.041203,-0.6 0.587977,-1.33333 -0.453225,-0.73333 -0.188634,-1.33333 0.587978,-1.33333 0.776612,0 1.34097,-0.45 1.254128,-1 -0.450471,-2.852981 0.401288,-5.425091 2.565954,-7.748589 1.324432,-1.42161 2.4623,-3.060484 2.528595,-3.641938 0.313575,-2.750284 3.524592,-8.94281 4.637132,-8.94281 0.68764,0 0.82214,-0.692705 0.29889,-1.539344 -0.56231,-0.909844 -0.36844,-1.179074 0.4741,-0.65836 0.784,0.484543 1.67837,0.427247 1.98748,-0.12732 0.30911,-0.554569 0.35001,-0.182258 0.0909,0.827356 -0.25913,1.009616 0.28921,2.774791 1.21853,3.922612 1.37264,1.69538 1.36412,1.891139 -0.0454,1.043344 -1.24918,-0.751332 -1.11817,0.390583 0.46778,4.077388 1.21159,2.816546 3.13429,7.820992 4.27266,11.120991 1.13837,3.3 2.87787,7.18351 3.86555,8.63001 1.73298,2.53802 1.79947,2.5147 1.90105,-0.66667 0.0579,-1.81317 0.40135,-2.56632 0.76323,-1.67367 0.36187,0.89265 -1.17016,5.39265 -3.40453,10 -2.23437,4.60735 -4.07782,7.69979 -4.09656,6.87209 z M 52.666667,119.05469 C 34.849623,118.59432 33.315601,118.26818 28.023771,113.8154 l -4.181756,-3.51872 -4.346958,3.85166 c -2.390826,2.11841 -0.853482,0.47536 3.416322,-3.65124 4.269804,-4.12659 12.253433,-10.606937 17.741398,-14.400765 10.662592,-7.371044 38.544191,-22.283596 37.796171,-20.215388 -0.246921,0.682713 -4.047125,8.129886 -8.444899,16.549274 l -7.99595,15.307979 2.978621,6.1309 c 1.638243,3.37199 2.83642,6.00347 2.662617,5.84772 -0.173802,-0.15574 -6.916004,-0.4537 -14.98267,-0.66213 z M 144.21052,108 c 0,-1.83333 0.30264,-2.58333 0.67252,-1.66667 0.36988,0.91667 0.36988,2.41667 0,3.33334 -0.36988,0.91666 -0.67252,0.16666 -0.67252,-1.66667 z M 110.94743,64.801145 c 0.94558,-1.026036 1.92932,-1.665954 2.18608,-1.422041 0.79087,0.751279 -1.21351,3.287563 -2.5981,3.287563 -0.71897,0 -0.53356,-0.839484 0.41202,-1.865522 z m 10.1359,-4.37863 c 0.9625,-0.385162 2.1125,-0.337792 2.55556,0.105266 0.44305,0.443056 -0.34445,0.758188 -1.75,0.700294 -1.55326,-0.06397 -1.8692,-0.379922 -0.80556,-0.805556 z M 131.75,57.755848 c 0.9625,-0.385161 2.11249,-0.337792 2.55556,0.105267 0.44305,0.443056 -0.34445,0.758188 -1.75,0.700293 -1.55326,-0.06397 -1.8692,-0.379921 -0.80556,-0.805556 z m 12,-2.666667 c 0.96249,-0.385161 2.11249,-0.337792 2.55556,0.105267 0.44305,0.443056 -0.34445,0.758188 -1.75,0.700293 -1.55327,-0.06397 -1.8692,-0.379921 -0.80556,-0.805556 z m 5.33333,-1.333333 c 0.9625,-0.385161 2.1125,-0.337792 2.55556,0.105267 0.44306,0.443056 -0.34445,0.758188 -1.75,0.700293 -1.55326,-0.06397 -1.8692,-0.379921 -0.80556,-0.805556 z m 8,-1.333333 c 0.9625,-0.385162 2.1125,-0.337792 2.55556,0.105266 0.44306,0.443056 -0.34445,0.758188 -1.75,0.700294 -1.55326,-0.06397 -1.8692,-0.379922 -0.80556,-0.805556 z M 163.75,51.089181 c 0.96249,-0.385161 2.11249,-0.337792 2.55556,0.105267 0.44305,0.443056 -0.34445,0.758188 -1.75,0.700293 -1.55327,-0.06397 -1.8692,-0.379921 -0.80556,-0.805556 z M 173,49.783625 c 0.91667,-0.369882 2.41667,-0.369882 3.33333,0 0.91667,0.369884 0.16667,0.672515 -1.66666,0.672515 -1.83334,0 -2.58334,-0.302631 -1.66667,-0.672515 z m 8.68299,-1.372536 c 1.29232,-0.3371 1.94961,-1.260204 1.46065,-2.051342 -0.52853,-0.8552 -0.26484,-1.05269 0.65035,-0.48707 2.56262,1.583787 1.72905,3.470438 -1.46066,3.305988 -2.28298,-0.117706 -2.43841,-0.301157 -0.65034,-0.767576 z"
       style="fill:none;stroke-width:1.33333337;fill-opacity:1;stroke:none;stroke-opacity:1" />
    <path
       id="path4205"
       d="m 86.16722,151.66667 c -2.456479,-3.85 -8.816629,-14.9398 -14.133668,-24.64402 -6.988027,-12.75395 -9.450464,-18.48174 -8.884809,-20.66666 0.430394,-1.66246 5.011874,-10.758779 10.181068,-20.214039 5.169194,-9.455262 9.234657,-17.351823 9.034361,-17.547914 -0.200295,-0.196092 -6.622623,2.600351 -14.27184,6.214316 C 42.960649,86.682121 18.116452,105.53676 8,120.41334 c -1.8333333,2.69597 -3.6954029,4.90587 -4.1379324,4.91088 -0.4425293,0.005 -1.4925293,-4.15646 -2.3333333,-9.24773 C -3.7952196,83.838729 7.0664016,51.412816 30.789247,28.723164 60.371287,0.42949924 99.179773,-7.2422205 137.48439,7.6315085 153.20275,13.734967 170.82811,27.119269 179.87116,39.819071 l 2.85445,4.008696 -6.36281,0.879413 c -18.14768,2.508223 -56.94857,10.410256 -58.7588,11.966584 -0.42695,0.367065 4.13605,8.904747 11.0416,20.659569 C 137.47677,92.366027 144,105.40666 144,108.02844 c 0,3.47268 -7.33575,18.01464 -18.29013,36.25729 l -8.63549,14.38094 H 103.85396 90.633544 Z m 21.85116,-21.70305 11.17442,-22.116 -6.56893,-12.923811 c -3.6129,-7.108094 -6.44164,-13.955284 -6.28608,-15.215974 0.15557,-1.26069 1.7892,-5.414691 3.63031,-9.231111 3.2867,-6.813008 3.74607,-9.531135 1.0437,-6.175612 -2.12327,2.636457 -21.678467,41.938308 -21.678467,43.569188 0,0.79673 2.806918,7.49618 6.237595,14.88767 l 6.237592,13.43906 -4.237592,8.5934 c -4.680501,9.49156 -5.08102,10.90274 -2.482279,8.74597 0.965424,-0.80123 6.783801,-11.40899 12.929731,-23.57278 z"
       style="fill:none;stroke-width:1.33333337;fill-opacity:1;stroke:none;stroke-opacity:1" />
  </g>
  <g
     transform="translate(304.50161,16.553062)"
     id="g13156">
    <path
       id="path13164"
       d="m -227.75793,182.6711 c -45.42835,-11.86177 -76,-51.17068 -76,-97.720504 0,-18.789202 6.4042,-39.42769 17.14036,-55.237387 13.86467,-20.4166333 33.71159,-34.4274237 58.19297,-41.080915 12.55851,-3.41312 37.75489,-3.493019 50,-0.158552 19.84082,5.4028503 38.91646,17.5300417 51.42207,32.69118 35.969587,43.607608 29.5412,107.572958 -14.36569,142.945118 -22.83604,18.39712 -58.04561,25.96198 -86.38971,18.56106 z"
       style="fill:#f4ca04;stroke-width:1.33333337" />
    <path
       id="path13162"
       d="m -227.75793,182.6711 c -45.42835,-11.86177 -76,-51.17068 -76,-97.720504 0,-18.789202 6.4042,-39.42769 17.14036,-55.237387 13.86467,-20.4166333 33.71159,-34.4274237 58.19297,-41.080915 12.55851,-3.41312 37.75489,-3.493019 50,-0.158552 19.84082,5.4028503 38.91646,17.5300417 51.42207,32.69118 35.969587,43.607608 29.5412,107.572958 -14.36569,142.945118 -22.83604,18.39712 -58.04561,25.96198 -86.38971,18.56106 z m 34.94036,-64.64776 c 3.34514,-1.13981 8.48252,-4.12707 11.41641,-6.63837 l 5.33433,-4.56599 6.2381,2.12553 c 6.09211,2.07579 6.31415,2.05409 9.48777,-0.92739 4.28891,-4.02922 4.1331,-6.55008 -0.41697,-6.74584 l -3.66667,-0.15775 4,-1.01783 c 7.03214,-1.789372 15.33342,-1.55165 14.5778,0.41746 -1.01313,2.64018 3.47607,5.87636 8.99534,6.48456 2.69856,0.29737 4.61316,0.0661 4.25465,-0.514 -0.35851,-0.58008 -2.59643,-1.05468 -4.97315,-1.05468 -4.23917,0 -7.5213,-1.95206 -7.5213,-4.47332 0,-0.70032 1.09724,-0.28032 2.43832,0.93333 1.34108,1.21366 4.08052,2.20665 6.08765,2.20665 2.00713,0 4.95989,0.69824 6.56168,1.55163 2.63268,1.40263 2.73663,1.33861 1.08243,-0.66667 -1.01579,-1.23136 -3.74159,-2.21829 -6.1267,-2.21829 -4.84376,0 -7.8151,-2.72312 -9.45666,-8.666666 l -1.10478,-4 -0.48428,3.54315 c -0.44284,3.239947 -1.07676,3.585635 -7.40764,4.039588 -3.80785,0.273042 -7.11828,0.04387 -7.3565,-0.509269 -0.62138,-1.442727 -8.23352,4.444647 -8.23352,6.367957 0,2.50812 3.6293,3.27846 5.3991,1.14599 0.87675,-1.05641 2.55698,-1.92075 3.73386,-1.92075 1.62892,0 1.31964,0.82013 -1.2955,3.43525 -3.33386,3.33388 -3.57946,3.375 -8.32177,1.39354 -5.67256,-2.37015 -7.00465,-4.80097 -4.84367,-8.838798 2.05685,-3.843252 3.29882,-2.417121 1.36072,1.562478 l -1.51664,3.1142 2.77641,-3.19027 c 2.46258,-2.829666 2.55438,-3.435604 0.81215,-5.360752 -1.08035,-1.193765 -2.61135,-3.658145 -3.40222,-5.476398 -1.29304,-2.972724 -1.37575,-2.801983 -0.8207,1.694084 0.45155,3.657616 0.12395,5 -1.22022,5 -1.01061,0 -2.2083,-0.6 -2.66152,-1.333334 -0.45323,-0.733333 -1.43219,-1.333333 -2.17547,-1.333333 -0.74328,0 -0.12108,1.564124 1.38268,3.475831 3.68968,4.690672 1.74139,8.911492 -3.59389,7.785852 -1.98733,-0.41928 -4.92655,-1.02689 -6.53161,-1.35024 -1.60506,-0.32334 -3.29047,0.0143 -3.74536,0.75033 -0.45488,0.73602 -1.46066,1.33823 -2.23506,1.33823 -0.78147,0 -0.43613,-1.48324 0.7761,-3.33334 1.20124,-1.83333 1.71458,-3.33333 1.14074,-3.33333 -0.57384,0 -1.79275,1.2 -2.7087,2.66667 -0.91595,1.46666 -2.27824,2.66666 -3.02731,2.66666 -0.74908,0 -0.17868,-1.65 1.26754,-3.66666 1.44623,-2.01667 3.58362,-6.96667 4.74975,-11.000003 1.16613,-4.033333 2.85082,-8.266016 3.74375,-9.405963 2.76652,-3.531852 15.76198,-13.260704 17.71318,-13.260704 1.01762,0 5.23338,1.83036 9.36836,4.067467 4.13498,2.237107 7.80418,3.781428 8.15378,3.431825 1.26634,-1.266337 -16.23122,-8.966594 -18.89615,-8.315741 -1.8432,0.450165 -4.00075,-0.653669 -6.71567,-3.435827 -5.9671,-6.114896 -13.35722,-9.017914 -23.04282,-9.051774 -9.80526,-0.03428 -15.2233,1.944486 -22.27357,8.134705 -2.81735,2.473667 -6.20137,4.314796 -7.52003,4.091397 -1.31867,-0.223398 -8.67211,2.62775 -16.34098,6.335884 -7.66887,3.708135 -14.62305,6.742064 -15.45374,6.742064 -0.83068,0 -3.71778,1.5 -6.41577,3.333334 -2.698,1.833333 -5.985,3.333333 -7.30445,3.333333 -4.10671,0 -4.3304,-3.960739 -0.42804,-7.579208 4.95753,-4.596877 4.14725,-8.46922 -2.2827,-10.909088 -3.98821,-1.51334 -5.4025,-1.5749 -6.66667,-0.290183 -1.25491,1.275315 -0.78936,2.336804 2.13646,4.871231 3.89124,3.370707 6.25898,4.127291 6.25898,1.999983 0,-0.68233 -1.34387,-1.43233 -2.98638,-1.666667 -1.64251,-0.234337 -3.18323,-1.459051 -3.42381,-2.721584 -0.38473,-2.018896 0.0683,-2.119227 3.75913,-0.832584 5.74358,2.002224 6.32527,4.597201 2.03444,9.075867 -7.48581,7.813497 -0.007,12.623396 9.54062,6.135761 2.7656,-1.879273 6.14444,-3.416861 7.50854,-3.416861 1.3641,0 4.00573,-1.2 5.8703,-2.666667 1.86456,-1.466667 4.12474,-2.666667 5.02261,-2.666667 0.89788,0 5.09215,-1.846173 9.32061,-4.102608 8.92881,-4.76468 11.24546,-4.528622 18.77065,1.912663 5.69056,4.870901 8.81903,10.196069 11.10592,18.904032 0.7772,2.959415 2.68788,6.749084 4.24596,8.421488 4.15218,4.456835 2.14588,5.037755 -2.13573,0.618395 -3.65008,-3.767512 -3.31054,-1.791668 0.44326,2.57936 1.72852,2.01273 1.73729,2.33334 0.0639,2.33334 -1.06699,0 -2.51051,-0.57053 -3.20782,-1.26784 -0.79295,-0.79294 -3.26508,-0.80486 -6.6,-0.0318 -2.9327,0.67982 -6.08217,1.25034 -6.99884,1.26784 -1.97693,0.0377 -2.25769,-6.112208 -0.33333,-7.301526 2.6129,-1.614862 1.28587,-3.635134 -1.97794,-3.011216 -2.96994,0.56774 -3.23615,0.274514 -2.58251,-2.844564 0.6764,-3.227638 0.6099,-3.285912 -0.92527,-0.810887 -0.90972,1.466667 -2.53848,3.325081 -3.61948,4.129809 -1.41286,1.051784 -1.53379,1.729918 -0.43012,2.412023 0.84443,0.521884 1.53532,2.233471 1.53532,3.803521 0,2.22028 0.35556,2.49909 1.6,1.25465 1.24444,-1.24445 1.24444,-1.95556 0,-3.200003 -2.31317,-2.313173 -1.97077,-4.367568 0.4,-2.4 3.19131,2.648553 2.3467,6.418903 -1.93379,8.632423 -5.74937,2.97312 -10.14185,2.53956 -13.16133,-1.29909 -1.4421,-1.83333 -3.00676,-3.33333 -3.47702,-3.33333 -1.70446,0 1.87739,5.00824 5.08495,7.10991 3.33025,2.18206 8.1363,1.55538 14.51745,-1.89301 1.71572,-0.92718 2.56532,-0.7516 3.09954,0.64055 1.01111,2.63492 9.99122,8.69282 16.13419,10.88397 6.76062,2.41146 13.30397,2.36491 20.67637,-0.14712 z m 25.72631,-15.26097 c 0.45322,-0.73333 1.38864,-1.33333 2.07869,-1.33333 0.69005,0 1.25464,0.6 1.25464,1.33333 0,0.73333 -0.93541,1.33333 -2.07869,1.33333 -1.14328,0 -1.70787,-0.6 -1.25464,-1.33333 z m -115.33334,8 c 0,-0.73333 1.05,-1.35242 2.33334,-1.37574 1.28333,-0.0233 3.48034,-0.9104 4.88225,-1.97129 1.45723,-1.10276 3.86985,-1.59736 5.63311,-1.15481 2.29429,0.57583 4.1435,-0.28523 7.22031,-3.36204 3.60902,-3.60902 5.0576,-4.13612 11.36689,-4.13612 6.69847,0 9.09717,-1.355788 5.89744,-3.333333 -0.73334,-0.453225 -1.33334,-0.199865 -1.33334,0.563023 0,0.827405 -2.82439,1.250412 -7,1.048381 -6.28477,-0.30408 -6.98918,-0.642115 -6.89413,-3.308379 0.0582,-1.63333 -0.39177,-2.969692 -1,-2.969692 -0.60823,0 -1.10587,1.465978 -1.10587,3.257728 0,3.860938 -4.48959,7.408942 -9.37517,7.408942 -1.89666,0 -4.61316,0.94898 -6.03665,2.10884 -2.55151,2.07897 -2.5504,2.0955 0.0785,1.16629 1.46667,-0.5184 4.9057,-1.38481 7.64229,-1.92535 2.73659,-0.54054 5.90033,-1.75024 7.03052,-2.68822 1.7091,-1.41842 1.92523,-1.367502 1.28436,0.30258 -0.98276,2.56105 -6.67428,5.18863 -9.16699,4.23209 -1.04944,-0.40271 -3.35445,0.2155 -5.12223,1.37379 -1.76778,1.1583 -3.53076,1.78939 -3.91772,1.40243 -0.38696,-0.38696 -1.46253,0.21094 -2.39016,1.32866 -1.78309,2.1485 -5.36007,2.78136 -5.36007,0.94834 0,-0.59613 1.8,-2.80839 4,-4.91612 2.2,-2.10773 3.98175,-4.46999 3.95945,-5.249454 -0.0223,-0.779467 -0.63816,-0.392132 -1.36859,0.860744 -0.75168,1.28932 -2.2023,1.94247 -3.34245,1.50496 -2.78262,-1.06779 -7.24841,3.30065 -7.24841,7.0904 0,2.68446 0.66003,3.12668 4.66667,3.12668 2.56666,0 4.66666,-0.6 4.66666,-1.33333 z m -8,-2 c 0,-1.1 0.58117,-2 1.29149,-2 0.71032,0 0.94613,0.9 0.52401,2 -0.4221,1.1 -1.00327,2 -1.29148,2 -0.28821,0 -0.52402,-0.9 -0.52402,-2 z m 3.33334,-4.66667 c 0.45322,-0.73333 1.08863,-1.33333 1.41202,-1.33333 0.32339,0 0.58798,0.6 0.58798,1.33333 0,0.73334 -0.63541,1.33334 -1.41203,1.33334 -0.77661,0 -1.0412,-0.6 -0.58797,-1.33334 z m 171.33333,5.56576 c 0,-1.33884 -1.63184,-3.88884 -3.62632,-5.66667 -1.99448,-1.77783 -2.82101,-2.18242 -1.83673,-0.89909 3.27374,4.26846 -0.27952,2.40767 -4.77562,-2.50092 -5.60221,-6.1162 -5.72749,-9.239178 -0.41325,-10.302024 2.54128,-0.508258 4.58236,-2.048747 5.56135,-4.1974 1.30886,-2.872642 1.11202,-3.982264 -1.28046,-7.218266 -2.79926,-3.786212 -2.8015,-3.846942 -0.22801,-6.175917 2.80233,-2.536076 3.53373,-7.272136 1.12305,-7.272136 -0.81178,0 -1.13728,0.882637 -0.72332,1.961415 0.7604,1.981552 -1.73473,5.349933 -4.69354,6.336204 -1.05443,0.351474 -0.60407,1.538801 1.30952,3.452381 5.04653,5.046536 3.1656,12.25 -3.19867,12.25 -3.98685,0 -5.48124,8.006477 -1.67992,9.000543 1.35405,0.354094 2.46192,1.127793 2.46192,1.71933 0,0.59154 1.57465,2.9469 3.49924,5.23414 3.33619,3.96483 3.5154,7.59396 0.21187,4.29043 -1.92427,-1.92426 -6.86874,-2.11752 -5.69767,-0.22269 0.46061,0.74529 1.35457,1.0355 1.98656,0.64491 0.63199,-0.39059 1.52595,-0.10037 1.98656,0.64492 0.46061,0.7453 2.90208,1.35508 5.42547,1.35508 3.55306,0 4.58797,-0.54909 4.58797,-2.43424 z m -3.22273,-0.0535 c -0.57436,-0.92934 -0.68422,-2.04979 -0.24412,-2.48989 1.19329,-1.19328 2.49436,0.56174 1.84985,2.49526 -0.45163,1.3549 -0.76569,1.35385 -1.60573,-0.005 z m -120.9215,-8.89461 c -1.15918,-1.159179 -3.02033,-1.676256 -4.28572,-1.190683 -2.81501,1.080223 -2.82718,2.458733 -0.0462,5.239673 1.99135,1.99134 2.38096,2 4.28572,0.0952 1.8847,-1.8847 1.88935,-2.30113 0.0462,-4.14423 z m -3.85577,2.04899 c 0,-0.73333 0.6,-1.33333 1.33333,-1.33333 0.73334,0 1.33334,0.6 1.33334,1.33333 0,0.73333 -0.6,1.33333 -1.33334,1.33333 -0.73333,0 -1.33333,-0.6 -1.33333,-1.33333 z m -30.19383,-9.13901 c -1.19778,-5.021055 -1.51257,-5.354782 -4.35089,-4.612544 -2.78001,0.726989 -8.12195,-3.713814 -8.12195,-6.751852 0,-1.010208 0.9,-2.583675 2,-3.496594 1.1,-0.912918 1.98004,-2.336385 1.95564,-3.16326 -0.0757,-2.565041 -5.28897,4.641312 -5.28897,7.310972 0,3.621264 4.75138,7.852288 8.818,7.852288 3.0857,0 3.41977,0.442138 2.91788,3.861754 -0.40862,2.78409 -0.0814,3.6755 1.17251,3.194322 1.1434,-0.438764 1.45099,-1.876036 0.89778,-4.195086 z m 88.64295,-2.328772 c 0.982,0.60691 1.23917,0.206921 0.72629,-1.129634 -0.43673,-1.138088 -1.11371,-2.06925 -1.5044,-2.06925 -1.02458,0 -4.24521,4.440002 -4.29527,5.921506 -0.0233,0.690162 0.76657,0.148496 1.75532,-1.203701 0.98875,-1.352196 2.48188,-2.035711 3.31806,-1.518921 z m -32.16341,-1.484599 c -1.22222,-1.222221 -2.6427,-1.801736 -3.15663,-1.287811 -0.51393,0.513927 0.22085,1.779156 1.63283,2.81162 3.32525,2.431488 4.40218,1.354564 1.5238,-1.523809 z m 93.23608,-5.057912 c 0.42428,-1.105663 -0.34456,-3.589823 -1.70852,-5.520357 -1.36396,-1.930535 -3.07994,-4.361044 -3.81327,-5.401132 -0.97232,-1.379036 -0.63255,-2.411451 1.25484,-3.812976 1.42349,-1.05705 1.99349,-1.921908 1.26667,-1.921908 -1.83718,0 -4.52151,2.868093 -4.52151,4.831033 0,0.897068 1.5838,3.513269 3.51955,5.813781 2.73042,3.244919 3.16149,4.538402 1.92258,5.768968 -1.23562,1.227307 -3.12022,0.73861 -8.32908,-2.159818 -8.23912,-4.584614 -10.20973,-3.86303 -2.19189,0.802613 6.63693,3.862076 11.49579,4.478964 12.60063,1.599796 z m -107.27735,-7.611929 c -0.95675,-0.95675 -1.57777,-1.035472 -1.57777,-0.2 0,1.779708 1.57681,3.356521 2.46666,2.466666 0.37889,-0.378888 -0.0211,-1.398888 -0.88889,-2.266666 z m 87.75556,2.323129 c 0,-0.780643 -7.46639,-4.703548 -8.93379,-4.693887 -1.24792,0.0083 6.45466,5.084684 7.93379,5.228848 0.55,0.0536 1,-0.187126 1,-0.534961 z m -30,-3.367573 c 1.32731,-1.466667 1.74142,-2.666667 0.92023,-2.666667 -0.82119,0 -2.13529,1.2 -2.92023,2.666667 -0.78494,1.466666 -1.19904,2.666666 -0.92023,2.666666 0.27881,0 1.59292,-1.2 2.92023,-2.666666 z"
       style="fill:#e0144f;stroke-width:1.33333337" />
    <path
       id="path13160"
       d="m -227.75793,182.6711 c -28.01137,-7.31402 -51.49318,-25.68214 -64.51738,-50.46725 -6.36369,-12.11012 -11.50967,-33.93214 -11.38891,-48.295682 0.0674,-8.01747 0.44567,-10.397335 1.34766,-8.479131 0.94157,2.002369 1.07411,1.447011 0.53204,-2.229359 -0.39704,-2.692814 -0.12969,-5.262029 0.59411,-5.709366 0.72381,-0.447338 0.99959,-1.637932 0.61285,-2.645766 -1.26052,-3.284854 7.1478,-24.547712 13.46499,-34.05013 7.55389,-11.362674 23.53369,-26.334623 34.14232,-31.9889643 11.61464,-6.1905431 25.64291,-10.5917457 39.21232,-12.3024097 29.0484,-3.66206 61.01277,8.1058154 81.35413,29.951007 11.67692,12.540189 13.75218,15.267952 17.96524,23.613992 21.35283,42.299729 10.07939,94.226859 -26.92966,124.041999 -22.83604,18.39712 -58.04561,25.96198 -86.38971,18.56106 z m 34.94036,-64.64776 c 3.34514,-1.13981 8.48252,-4.12707 11.41641,-6.63837 l 5.33433,-4.56599 6.2381,2.12553 c 6.09211,2.07579 6.31415,2.05409 9.48777,-0.92739 4.28891,-4.02922 4.1331,-6.55008 -0.41697,-6.74584 l -3.66667,-0.15775 4,-1.01783 c 6.42064,-1.633771 14,-1.510148 14,0.22835 0,3.08483 4.46727,6.43832 8.57664,6.43832 2.28984,0 5.49686,0.93402 7.12668,2.07561 1.62984,1.14158 2.96335,1.62158 2.96335,1.06666 0,-0.55491 0.72,-0.28894 1.6,0.59106 0.88,0.88 3.58,1.6 6,1.6 3.37108,0 4.4,-0.56924 4.4,-2.43424 0,-2.61586 -5.6984,-8.75624 -6.95751,-7.49714 -1.24582,1.24583 -7.70916,-5.988864 -7.70916,-8.629223 0,-1.645761 1.30616,-2.700624 4.01475,-3.242341 2.54128,-0.508258 4.58236,-2.048747 5.56135,-4.1974 1.30886,-2.872642 1.11202,-3.982264 -1.28046,-7.218266 -2.79926,-3.786212 -2.8015,-3.846942 -0.22801,-6.175917 1.42947,-1.293656 2.59904,-3.459111 2.59904,-4.81212 0,-2.884988 -0.38819,-2.967011 -4.35143,-0.919448 -1.64005,0.847312 -3.8819,1.961623 -4.9819,2.476244 -3.2827,1.535768 -3.01159,4.702 0.78936,9.219175 2.77965,3.303426 3.22498,4.613918 1.9861,5.844462 -1.23561,1.227287 -3.08814,0.756523 -8.18692,-2.080449 -3.62446,-2.016667 -7.23513,-3.666667 -8.0237,-3.666667 -0.78856,0 -7.52228,-3.031405 -14.96382,-6.736457 -8.15089,-4.058239 -14.60434,-6.474117 -16.2322,-6.0766 -1.82691,0.446124 -3.99778,-0.667863 -6.70216,-3.439219 -5.9671,-6.114896 -13.35722,-9.017914 -23.04282,-9.051774 -9.80526,-0.03428 -15.2233,1.944486 -22.27357,8.134705 -2.81735,2.473667 -6.20137,4.314796 -7.52003,4.091397 -1.31867,-0.223398 -8.67211,2.62775 -16.34098,6.335884 -7.66887,3.708135 -14.62305,6.742064 -15.45374,6.742064 -0.83068,0 -3.71778,1.5 -6.41577,3.333334 -2.698,1.833333 -5.985,3.333333 -7.30445,3.333333 -4.10671,0 -4.3304,-3.960739 -0.42804,-7.579208 4.95753,-4.596877 4.14725,-8.46922 -2.2827,-10.909088 -3.98821,-1.51334 -5.4025,-1.5749 -6.66667,-0.290183 -1.25465,1.275051 -0.84815,2.286239 1.86409,4.636952 3.41617,2.960811 3.4313,3.052436 1,6.05496 -1.35776,1.676762 -2.46865,4.182187 -2.46865,5.567612 0,3.567312 4.72938,7.852288 8.66667,7.852288 2.67768,0 3.33333,0.663878 3.33333,3.37518 0,1.998862 -0.95148,3.724891 -2.33333,4.232786 -1.28334,0.471682 -2.7992,1.627932 -3.3686,2.569444 -0.56939,0.94151 -1.94174,1.36399 -3.04966,0.93884 -2.78262,-1.06779 -7.24841,3.30065 -7.24841,7.0904 0,2.68446 0.66003,3.12668 4.66667,3.12668 2.56666,0 4.66666,-0.6 4.66666,-1.33333 0,-0.73333 1.05,-1.35242 2.33334,-1.37574 1.28333,-0.0233 3.48034,-0.9104 4.88225,-1.97129 1.45723,-1.10276 3.86985,-1.59736 5.63311,-1.15481 2.29429,0.57583 4.1435,-0.28523 7.22031,-3.36204 3.66124,-3.661236 5.00459,-4.133776 11.70022,-4.115702 5.37562,0.01451 6.98546,0.394369 5.56411,1.312912 -1.1,0.71088 -3.37111,1.30169 -5.04692,1.31292 -2.55442,0.0171 -2.83256,0.42092 -1.7208,2.49826 0.72935,1.36282 2.80559,3.44725 4.61386,4.63207 3.33025,2.18206 8.1363,1.55538 14.51745,-1.89301 1.71572,-0.92718 2.56532,-0.7516 3.09954,0.64055 1.01111,2.63492 9.99122,8.69281 16.13419,10.88397 6.76062,2.41146 13.30397,2.36491 20.67637,-0.14712 z"
       style="fill:#a70b38;stroke-width:1.33333337" />
    <path
       id="path13158"
       d="m -224.61404,183.44201 c -16.14602,-3.69571 -30.85361,-11.14019 -45.37328,-22.96639 -10.39265,-8.46476 -23.60056,-27.97465 -27.64646,-40.83761 -2.73576,-8.6977 -2.02599,-10.66549 7.89047,-21.87564 4.80783,-5.43506 7.06331,-7 10.08878,-7 3.26749,0 3.8966,0.538175 3.8966,3.333334 0,2.03849 -0.75868,3.333333 -1.95309,3.333333 -1.0742,0 -2.58335,1.177657 -3.35367,2.617013 -0.84288,1.57493 -2.20865,2.30693 -3.42991,1.83829 -2.79506,-1.07256 -7.26333,3.2858 -7.26333,7.08468 0,2.5388 0.705,3.12668 3.74956,3.12668 2.06226,0 6.41226,-1.31855 9.66667,-2.93011 3.25441,-1.61156 6.73931,-2.76868 7.74423,-2.57137 3.10105,0.60887 9.3747,-2.65037 10.21839,-5.30858 0.6771,-2.133372 2.07464,-2.507004 9.04433,-2.418007 8.32454,0.106293 8.56708,0.3353 1.91015,1.803507 -4.83053,1.0654 -4.62508,2.55783 0.93601,6.79948 4.31013,3.2875 4.92455,3.40163 9.66667,1.79567 2.78519,-0.94323 5.60245,-2.16094 6.26056,-2.70602 0.65812,-0.54507 2.352,0.47783 3.76419,2.27313 4.405,5.60006 13.6691,10.11805 22.3635,10.90644 9.72356,0.8817 18.09568,-1.92244 25.37531,-8.49915 l 4.95666,-4.47804 6.12977,2.27185 c 6.08161,2.254 6.15627,2.24694 9.50521,-0.89923 4.40735,-4.14048 4.30018,-6.66645 -0.29121,-6.86399 l -3.66667,-0.15775 4,-1.01783 c 6.89326,-1.754031 14,-1.520515 14,0.46002 0,2.96425 4.6172,6.20665 8.83832,6.20665 2.17892,0 4.60327,0.64158 5.38742,1.42573 0.78416,0.78416 2.25416,1.59354 3.26666,1.79862 1.01252,0.20508 2.84026,0.80824 4.06164,1.34036 1.22139,0.53212 3.92139,0.77274 6,0.53472 2.91746,-0.33407 3.67507,-1.02968 3.32224,-3.05034 -0.58657,-3.35929 -5.53116,-7.67225 -7.79841,-6.80222 -0.97837,0.37543 -1.74453,-0.24536 -1.74453,-1.41354 0,-1.145642 -1.2,-2.39679 -2.66667,-2.780331 -1.67361,-0.43766 -2.66667,-1.818688 -2.66667,-3.708507 0,-2.281521 0.97282,-3.205721 4.01475,-3.814106 2.54128,-0.508258 4.58236,-2.048747 5.56135,-4.1974 1.30638,-2.86721 1.11404,-3.979542 -1.23836,-7.161335 -2.73999,-3.706031 -2.74367,-3.802253 -0.22803,-5.956217 1.40633,-1.204134 2.55696,-3.435639 2.55696,-4.9589 0,-2.248544 -0.56437,-2.60113 -3,-1.874216 -4.74481,1.416089 -9,4.511086 -9,6.54612 0,1.026829 1.5838,3.749198 3.51955,6.04971 2.7022,3.21138 3.15456,4.547744 1.94788,5.754431 -1.2067,1.206687 -3.1852,0.767321 -8.51956,-1.891921 -3.82132,-1.90498 -9.04787,-4.373519 -11.61454,-5.48564 -9.60732,-4.162795 -18.073,-8.413474 -20.28661,-10.186052 -1.30733,-1.04686 -3.84098,-1.533898 -5.91605,-1.137224 -2.68128,0.512561 -4.22898,-0.0684 -5.92447,-2.223858 -1.26227,-1.604717 -5.48795,-4.655466 -9.39039,-6.779442 -12.32921,-6.710398 -29.62008,-4.402139 -38.38156,5.123778 -1.90782,2.074279 -4.65895,3.514447 -6.71358,3.514447 -1.91464,0 -9.46006,2.991352 -16.76759,6.647448 -7.30753,3.656097 -14.09379,6.656097 -15.08059,6.666667 -0.98679,0.01053 -3.64513,1.337218 -5.90741,2.948108 -2.26229,1.610889 -3.67585,2.221157 -3.14124,1.35615 1.38601,-2.242617 17.48105,-12.474877 30.57861,-19.440044 27.26018,-14.496725 79.86347,-29.917833 114.34302,-33.520646 l 8.74546,-0.913826 5.45679,10.64277 c 7.95776,15.520637 11.59761,32.5464 10.68595,49.984486 -0.86382,16.52249 -3.3318,26.24393 -10.22987,40.29555 -12.38653,25.23186 -35.9416,44.58938 -63.4038,52.10519 -10.87543,2.97636 -36.3295,3.65059 -46.85611,1.24112 z"
       style="fill:#031d43;stroke-width:1.33333337" />
  </g>
</svg>
