<?xml version="1.0" encoding="UTF-8" standalone="no"?>
<!-- Created with Inkscape (http://www.inkscape.org/) -->

<svg
   xmlns:dc="http://purl.org/dc/elements/1.1/"
   xmlns:cc="http://creativecommons.org/ns#"
   xmlns:rdf="http://www.w3.org/1999/02/22-rdf-syntax-ns#"
   xmlns:svg="http://www.w3.org/2000/svg"
   xmlns="http://www.w3.org/2000/svg"
   xmlns:sodipodi="http://sodipodi.sourceforge.net/DTD/sodipodi-0.dtd"
   xmlns:inkscape="http://www.inkscape.org/namespaces/inkscape"
   version="1.1"
   id="svg3699"
   width="200"
   height="200"
   viewBox="0 0 200 200"
   sodipodi:docname="logo-rs.svg"
   inkscape:version="0.92.2 (5c3e80d, 2017-08-06)">
  <metadata
     id="metadata3705">
    <rdf:RDF>
      <cc:Work
         rdf:about="">
        <dc:format>image/svg+xml</dc:format>
        <dc:type
           rdf:resource="http://purl.org/dc/dcmitype/StillImage" />
        <dc:title></dc:title>
      </cc:Work>
    </rdf:RDF>
  </metadata>
  <defs
     id="defs3703" />
  <sodipodi:namedview
     pagecolor="#ffffff"
     bordercolor="#666666"
     borderopacity="1"
     objecttolerance="10"
     gridtolerance="10"
     guidetolerance="10"
     inkscape:pageopacity="0"
     inkscape:pageshadow="2"
     inkscape:window-width="1920"
     inkscape:window-height="1017"
     id="namedview3701"
     showgrid="false"
     inkscape:zoom="1.4576119"
     inkscape:cx="-247.32252"
     inkscape:cy="175.31085"
     inkscape:window-x="-8"
     inkscape:window-y="-8"
     inkscape:window-maximized="1"
     inkscape:current-layer="svg3699" />
  <g
     id="g12832">
    <path
       style="fill:#fcd200;stroke-width:1.33333337"
       d="M 79.153756,198.08547 C 38.600212,188.88729 9.0992955,157.93133 1.2256461,116.31378 -0.71222189,106.07084 0.28689104,85.01786 3.2337347,74 10.377445,47.290609 30.135723,23.267189 55.321967,10.667686 71.152039,2.7486387 80.41312,0.67790899 100,0.67790899 c 19.46216,0 28.64776,2.03835101 44.66667,9.91184801 26.51621,13.033056 45.23474,36.658898 52.80689,66.650898 4.16532,16.498101 3.20645,37.477375 -2.47232,54.092675 -2.25575,6.6 -5.62508,14.7 -7.48741,18 -8.09,14.33522 -23.84528,30.0905 -38.1805,38.1805 -3.3,1.86233 -11.4,5.23437 -18,7.49344 -10.29105,3.52244 -14.27859,4.1662 -28,4.52041 -10.311822,0.2662 -18.907926,-0.24653 -24.179574,-1.44221 z"
       id="path12840"
       inkscape:connector-curvature="0" />
    <path
       style="fill:#3092e7;stroke-width:1.33333337"
       d="m 128.98516,165.66667 c -1.15214,-1.28334 -3.12362,-4.91666 -4.38105,-8.07406 l -2.28625,-5.74073 -3.49227,4.14443 -3.49226,4.14441 -12.50824,-0.40369 -12.508249,-0.4037 -7.614624,-12.66666 C 78.514173,139.7 73.301748,130.7 71.119049,126.66667 l -3.968542,-7.33334 -14.575254,-0.3288 c -17.725334,-0.39987 -19.245302,-0.72428 -24.63259,-5.25738 l -4.262864,-3.58696 -6.210646,6.58657 c -3.415854,3.62261 -7.4949071,8.38548 -9.0645607,10.58413 -1.5696536,2.19866 -3.1934784,3.658 -3.6084995,3.24298 C 4.3810716,130.15885 3.0596724,125.07163 1.85965,119.26893 -0.72252376,106.78286 -0.10789209,86.421428 3.2261411,74 10.405073,47.25384 30.151841,23.250363 55.321967,10.674144 69.181083,3.7494555 78.942801,1.2391761 95.359292,0.37832693 123.58399,-1.1017223 149.10416,8.4286907 169.32353,28 c 7.40942,7.171927 16.0098,18.1894 16.0098,20.509255 0,0.309236 -3.75,0.985441 -8.33333,1.502678 -13.53781,1.527768 -54.98435,10.120327 -56.48405,11.71009 -0.14423,0.152886 2.57709,5.077977 6.04737,10.944644 3.47029,5.866666 9.20924,16.217244 12.75325,23.001282 5.70676,10.924081 6.26675,12.722831 4.89687,15.729401 -0.85073,1.86714 -1.54677,3.52088 -1.54677,3.675 0,0.15411 2.67502,0.0674 5.9445,-0.19259 9.42262,-0.74941 9.76426,-2.19308 4.19102,-17.709716 C 149.06967,86.778236 148.30207,83.242601 149.47233,81.832519 150.61117,80.460296 155.10145,80 167.34888,80 c 13.61932,0 16.82501,0.390376 19.16088,2.333333 2.99529,2.491467 12.15691,27.377507 12.15691,33.022287 0,3.30237 -0.0345,3.31105 -13.17008,3.31105 -18.21146,0 -18.02164,-0.40759 -10.21255,21.92856 l 6.27083,17.93628 -3.77744,4.73421 -3.77743,4.7342 -21.46001,4e-5 c -18.75124,4e-5 -21.72444,-0.29448 -23.55483,-2.33329 z m -25.79082,-27.14334 c 4.10978,-7.77883 7.47233,-14.73252 7.47233,-15.45264 0,-1.99428 -6.23558,-4.40402 -11.396074,-4.40402 -2.532161,0 -4.603929,0.31711 -4.603929,0.70469 0,0.38757 1.808089,4.28649 4.017976,8.66425 l 4.017977,7.95956 -4.82382,9.66908 c -7.161301,14.35443 -3.301649,9.16935 5.31554,-7.14092 z m 8.86742,-43.733834 C 106.479,83.685947 103.63673,80.125093 107.44059,89 c 1.17867,2.75 2.99091,7.4 4.0272,10.333333 1.0363,2.933337 2.62998,6.786307 3.54152,8.562167 1.58173,3.0815 1.67606,3.10231 2.06733,0.45616 0.22548,-1.52497 -2.03121,-7.62794 -5.01488,-13.562164 z m -4.75089,-20.078504 c 1.84569,-3.642288 3.34857,-7.092288 3.33974,-7.666667 -0.0183,-1.192306 -5.65457,8.424931 -7.00669,11.955675 -1.81401,4.73688 0.41334,2.131679 3.66695,-4.289008 z"
       id="path12838"
       inkscape:connector-curvature="0" />
    <path
       style="fill:#bc9b00;stroke-width:1.33333337"
       d="m 128.98516,165.66667 c -1.15214,-1.28334 -3.12362,-4.91666 -4.38105,-8.07406 l -2.28625,-5.74073 -3.49227,4.14443 -3.49226,4.14441 -12.50824,-0.40369 -12.508249,-0.4037 -7.614624,-12.66666 C 78.514173,139.7 73.301748,130.7 71.119049,126.66667 l -3.968542,-7.33334 -14.575254,-0.3288 C 34.885488,118.60546 33.324,118.27525 28.019111,113.81148 l -4.186415,-3.52264 -4.992468,4.52225 c -2.745857,2.48723 -0.875513,0.43747 4.156321,-4.55503 10.621531,-10.538505 25.724443,-20.736635 44.62286,-30.131256 11.182816,-5.559107 16.554159,-9.759275 14.74531,-11.530221 -0.200596,-0.196392 -6.62317,2.599805 -14.272387,6.21377 -25.5772,12.084259 -48.503525,29.521817 -60.1663123,45.761957 l -4.5924508,6.39487 -1.5848474,-9.14925 C -4.0037048,84.607408 6.7030769,51.760317 30.789247,28.723164 60.371287,0.42949924 99.179773,-7.2422205 137.48439,7.6315085 153.18587,13.728409 170.82828,27.119508 179.84825,39.786883 l 2.83152,3.976509 -5.67322,0.828135 c -27.50311,4.014704 -59.92956,11.29793 -59.26762,13.311957 0.25847,0.786417 1.92295,1.654612 3.69884,1.929323 2.524,0.390434 2.74706,0.681512 1.02174,1.333333 -1.8801,0.710299 -1.27209,2.414444 4.10313,11.500527 3.47066,5.866666 9.20992,16.217244 12.75393,23.001282 5.70676,10.924081 6.26675,12.722831 4.89687,15.729401 -0.85073,1.86714 -1.54677,3.52088 -1.54677,3.675 0,0.15411 2.67502,0.0674 5.9445,-0.19259 9.42262,-0.74941 9.76426,-2.19308 4.19102,-17.709716 C 149.06967,86.778236 148.30207,83.242601 149.47233,81.832519 150.61117,80.460296 155.10145,80 167.34888,80 c 13.61932,0 16.82501,0.390376 19.16088,2.333333 2.99529,2.491467 12.15691,27.377507 12.15691,33.022287 0,3.30237 -0.0345,3.31105 -13.17008,3.31105 -18.21146,0 -18.02164,-0.40759 -10.21255,21.92856 l 6.27083,17.93628 -3.77744,4.73421 -3.77743,4.7342 -21.46001,4e-5 c -18.75124,4e-5 -21.72444,-0.29448 -23.55483,-2.33329 z m -25.79082,-27.14334 c 4.10978,-7.77883 7.47233,-14.73252 7.47233,-15.45264 0,-1.99428 -6.23558,-4.40402 -11.396074,-4.40402 -2.532161,0 -4.603929,0.31711 -4.603929,0.70469 0,0.38757 1.808089,4.28649 4.017976,8.66425 l 4.017977,7.95956 -4.82382,9.66908 c -7.161301,14.35443 -3.301649,9.16935 5.31554,-7.14092 z m 8.86742,-43.733834 C 106.479,83.685947 103.63673,80.125093 107.44059,89 c 1.17867,2.75 2.99091,7.4 4.0272,10.333333 1.0363,2.933337 2.62998,6.786307 3.54152,8.562167 1.58173,3.0815 1.67606,3.10231 2.06733,0.45616 0.22548,-1.52497 -2.03121,-7.62794 -5.01488,-13.562164 z m -4.75089,-20.078504 c 1.84569,-3.642288 3.34857,-7.092288 3.33974,-7.666667 -0.0183,-1.192306 -5.65457,8.424931 -7.00669,11.955675 -1.81401,4.73688 0.41334,2.131679 3.66695,-4.289008 z m 23.02246,-16.927367 c 0.91667,-0.369882 2.41667,-0.369882 3.33334,0 0.91666,0.369884 0.16666,0.672515 -1.66667,0.672515 -1.83333,0 -2.58333,-0.302631 -1.66667,-0.672515 z m 12,-2.666666 c 0.91667,-0.369883 2.41667,-0.369883 3.33334,0 0.91666,0.369884 0.16666,0.672514 -1.66667,0.672514 -1.83333,0 -2.58333,-0.30263 -1.66667,-0.672514 z m 6.75,-1.361111 c 0.9625,-0.385161 2.1125,-0.337792 2.55556,0.105267 0.44306,0.443056 -0.34445,0.758188 -1.75,0.700293 -1.55326,-0.06397 -1.8692,-0.379921 -0.80556,-0.805556 z m 8,-1.333333 c 0.9625,-0.385162 2.1125,-0.337792 2.55556,0.105266 0.44306,0.443056 -0.34445,0.758188 -1.75,0.700294 -1.55326,-0.06397 -1.8692,-0.379922 -0.80556,-0.805556 z M 163.75,51.089181 c 0.96249,-0.385161 2.11249,-0.337792 2.55556,0.105267 0.44305,0.443056 -0.34445,0.758188 -1.75,0.700293 -1.55327,-0.06397 -1.8692,-0.379921 -0.80556,-0.805556 z m 8.60871,-1.346502 c 1.29729,-0.338058 3.09729,-0.315826 4,0.0494 0.9027,0.36523 -0.15871,0.641824 -2.35871,0.61465 -2.2,-0.02717 -2.93859,-0.325997 -1.64129,-0.664056 z m 9.32428,-1.33159 c 1.29232,-0.3371 1.94961,-1.260204 1.46065,-2.051342 -0.52853,-0.8552 -0.26484,-1.05269 0.65035,-0.48707 2.56262,1.583787 1.72905,3.470438 -1.46066,3.305988 -2.28298,-0.117706 -2.43841,-0.301157 -0.65034,-0.767576 z"
       id="path12836"
       inkscape:connector-curvature="0" />
    <path
       style="fill:#323131;stroke-width:1.33333337"
       d="m 86.16722,151.66667 c -2.456479,-3.85 -8.816629,-14.9398 -14.133668,-24.64402 -6.988027,-12.75395 -9.450464,-18.48174 -8.884809,-20.66666 0.430394,-1.66246 5.011874,-10.758779 10.181068,-20.214039 5.169194,-9.455262 9.234657,-17.351823 9.034361,-17.547914 -0.200295,-0.196092 -6.622623,2.600351 -14.27184,6.214316 C 42.960649,86.682121 18.116452,105.53676 8,120.41334 c -1.8333333,2.69597 -3.6954029,4.90587 -4.1379324,4.91088 -0.4425293,0.005 -1.4925293,-4.15646 -2.3333333,-9.24773 C -3.7952196,83.838729 7.0664016,51.412816 30.789247,28.723164 60.371287,0.42949924 99.179773,-7.2422205 137.48439,7.6315085 153.20275,13.734967 170.82811,27.119269 179.87116,39.819071 l 2.85445,4.008696 -6.36281,0.879413 c -18.14768,2.508223 -56.94857,10.410256 -58.7588,11.966584 -0.42695,0.367065 4.13605,8.904747 11.0416,20.659569 C 137.47677,92.366027 144,105.40666 144,108.02844 c 0,3.47268 -7.33575,18.01464 -18.29013,36.25729 l -8.63549,14.38094 H 103.85396 90.633544 Z m 21.85116,-21.70305 11.17442,-22.116 -6.56893,-12.923811 c -3.6129,-7.108094 -6.44164,-13.955284 -6.28608,-15.215974 0.15557,-1.26069 1.7892,-5.414691 3.63031,-9.231111 3.2867,-6.813008 3.74607,-9.531135 1.0437,-6.175612 -2.12327,2.636457 -21.678467,41.938308 -21.678467,43.569188 0,0.79673 2.806918,7.49618 6.237595,14.88767 l 6.237592,13.43906 -4.237592,8.5934 c -4.680501,9.49156 -5.08102,10.90274 -2.482279,8.74597 0.965424,-0.80123 6.783801,-11.40899 12.929731,-23.57278 z"
       id="path12834"
       inkscape:connector-curvature="0" />
  </g>
  <g
     id="g4203"
     style="fill:none;fill-opacity:1;stroke:none;stroke-opacity:1">
    <path
       style="fill:none;stroke-width:1.33333337;fill-opacity:1;stroke:none;stroke-opacity:1"
       d="M 79.153756,198.08547 C 60.023972,193.74653 43.990028,185.00675 29.975813,171.27953 20.623949,162.11919 9.6788085,145.79355 6.5660596,136.36183 c -1.322884,-4.00838 -1.0490152,-4.91867 3.2206317,-10.70471 2.5665547,-3.47808 6.7789567,-8.35703 9.3608927,-10.84211 l 4.694431,-4.51833 4.181756,3.51872 c 5.299868,4.45954 6.863914,4.79011 24.551482,5.18913 l 14.575254,0.3288 3.968542,7.33334 c 2.182699,4.03333 7.395124,13.03333 11.583168,20 l 7.614624,12.66666 12.508249,0.4037 12.50824,0.40369 3.49226,-4.14441 3.49227,-4.14443 2.28625,5.74073 C 128.80154,168.13229 128.44805,168 152.41331,168 h 21.33333 l -2.53999,2.82912 c -8.54828,9.52137 -26.35922,20.08273 -42.53998,25.22496 -11.87016,3.77231 -37.247077,4.81347 -49.512914,2.03139 z M 180.16711,154.41356 c -0.63868,-1.69412 -3.40872,-9.533 -6.15564,-17.41972 -6.37667,-18.3081 -6.3647,-18.32717 11.51053,-18.32717 h 13.19547 l -0.88183,3.66666 c -2.7988,11.63736 -12.01223,32.38236 -15.27843,34.40099 -0.67588,0.41771 -1.75142,-0.62663 -2.3901,-2.32076 z m -82.28831,-8.74931 4.82382,-9.66908 -4.017977,-7.95956 c -2.209887,-4.37776 -4.017976,-8.27668 -4.017976,-8.66425 0,-0.38758 2.071768,-0.70469 4.603929,-0.70469 5.160494,0 11.396074,2.40974 11.396074,4.40402 0,1.63575 -14.461038,29.11242 -16.278177,30.92931 -0.733432,0.73333 0.837206,-3.01775 3.490307,-8.33575 z m 44.78787,-30.5919 c 0,-0.15412 0.69604,-1.80786 1.54677,-3.675 1.36988,-3.00657 0.80989,-4.80532 -4.89687,-15.729401 -3.54401,-6.784038 -9.28296,-17.134616 -12.75325,-23.001282 -3.47028,-5.866667 -6.20734,-10.77602 -6.08234,-10.909675 1.4243,-1.522993 36.55014,-8.838153 58.42259,-12.166844 l 7.57024,-1.152088 4.08855,8.870224 c 6.56412,14.241023 9.44808,27.761863 9.36481,43.904996 l -0.0728,14.12005 L 194.6014,100 C 191.47312,90.868575 188.20705,83.722897 186.52651,82.333333 184.1778,80.391287 180.96183,80 167.34888,80 c -12.24743,0 -16.73771,0.460296 -17.87655,1.832519 -1.17026,1.410082 -0.40266,4.945717 3.32986,15.337525 5.57324,15.516636 5.2316,16.960306 -4.19102,17.709716 -3.26948,0.26004 -5.9445,0.3467 -5.9445,0.19259 z m -27.65736,-7.17685 c -0.91154,-1.77586 -2.50522,-5.62883 -3.54152,-8.562167 C 110.4315,96.4 108.61926,91.75 107.44059,89 c -3.80386,-8.874907 -0.96159,-5.314053 4.62117,5.789496 2.98367,5.934224 5.24036,12.037194 5.01488,13.562164 -0.39127,2.64615 -0.4856,2.62534 -2.06733,-0.45616 z M 103.64392,79 c 1.35212,-3.530744 6.98835,-13.147981 7.00669,-11.955675 0.022,1.427402 -6.54692,14.289008 -7.29789,14.289008 -0.3313,0 -0.20026,-1.05 0.2912,-2.333333 z"
       id="path4211"
       inkscape:connector-curvature="0" />
    <path
       style="fill:none;stroke-width:1.33333337;fill-opacity:1;stroke:none;stroke-opacity:1"
       d="m 4.5976396,127.36143 c 0.8319212,-7.57861 19.4808574,-26.18887 39.1070724,-39.025967 9.814156,-6.419234 37.714933,-20.66615 38.660007,-19.74088 1.808849,1.770946 -3.562494,5.971114 -14.74531,11.530221 -26.073117,12.961248 -47.141998,29.130936 -57.116526,43.835086 -5.0476989,7.44117 -6.4364974,8.24114 -5.9052434,3.40154 z M 117.94517,58.577959 c -0.48337,-0.782123 -0.66878,-1.60713 -0.41202,-1.833347 0.95885,-0.844773 30.21485,-7.430601 41.13352,-9.259579 21.82366,-3.655666 23.60472,-3.77161 24.44146,-1.591094 0.561,1.461942 -0.39136,2.197864 -3.50213,2.706222 -20.02188,3.271958 -37.98397,6.657359 -46.78917,8.81858 -12.1346,2.978416 -13.67321,3.098348 -14.87166,1.159218 z M 25.333333,32.916121 c 0,-0.229466 1.95,-2.179466 4.333334,-4.333333 L 34,24.666667 30.083879,29 c -3.650375,4.039273 -4.750546,4.946203 -4.750546,3.916121 z"
       id="path4209"
       inkscape:connector-curvature="0" />
    <path
       style="fill:none;stroke-width:1.33333337;fill-opacity:1;stroke:none;stroke-opacity:1"
       d="m 128.98516,165.66667 c -1.15214,-1.28334 -3.10873,-4.87944 -4.34796,-7.99135 -1.23924,-3.11192 -2.83386,-5.29913 -3.54361,-4.86048 -0.70975,0.43865 -0.52607,-0.42644 0.40818,-1.9224 0.93425,-1.49597 2.27125,-2.36605 2.97111,-1.93352 0.69986,0.43255 0.92917,0.23096 0.50958,-0.44795 -1.03353,-1.6723 7.63652,-16.78088 8.90297,-15.51444 0.5519,0.55191 0.80346,0.35991 0.55901,-0.42666 -0.24444,-0.78657 1.26373,-5.02747 3.35151,-9.42421 3.78556,-7.97224 3.81289,-7.99493 10,-8.30485 10.29641,-0.51577 10.68318,-1.86539 5.03841,-17.581197 C 149.07679,86.79804 148.30197,83.242715 149.47233,81.832519 150.61117,80.460296 155.10145,80 167.34888,80 c 13.61932,0 16.82501,0.390376 19.16088,2.333333 2.99529,2.491467 12.15691,27.377507 12.15691,33.022287 0,3.30237 -0.0345,3.31105 -13.17008,3.31105 -18.21146,0 -18.02164,-0.40759 -10.21255,21.92856 l 6.27083,17.93628 -3.77744,4.73421 -3.77743,4.7342 -21.46001,4e-5 c -18.75124,4e-5 -21.72444,-0.29448 -23.55483,-2.33329 z M 90.201593,159 c -0.342348,-0.55 3.672242,-0.83577 8.921311,-0.63505 16.245116,0.6212 18.122876,1.19872 4.622456,1.42166 C 96.638635,159.90395 90.543941,159.55 90.201593,159 Z m 10.602417,-18.77777 c -0.37769,-0.61112 0.16051,-1.11112 1.19599,-1.11112 1.03548,0 1.57368,0.5 1.19599,1.11112 -0.37768,0.6111 -0.91588,1.1111 -1.19599,1.1111 -0.28011,0 -0.81831,-0.5 -1.19599,-1.1111 z m 9.89672,-17.06047 c -0.0534,-2.3582 -7.49093,-4.85025 -12.670811,-4.24553 -3.244588,0.37879 -4.696586,0.0127 -4.696586,-1.18396 0,-0.95275 0.15,-1.92513 0.333334,-2.16084 0.183333,-0.23572 -0.716667,-1.47857 -2,-2.76191 -2.55927,-2.55927 -3.165195,-7.47619 -0.921311,-7.47619 0.776612,0 1.041203,-0.6 0.587977,-1.33333 -0.453225,-0.73333 -0.188634,-1.33333 0.587978,-1.33333 0.776612,0 1.34097,-0.45 1.254128,-1 -0.450471,-2.852981 0.401288,-5.425091 2.565954,-7.748589 1.324432,-1.42161 2.4623,-3.060484 2.528595,-3.641938 0.313575,-2.750284 3.524592,-8.94281 4.637132,-8.94281 0.68764,0 0.82214,-0.692705 0.29889,-1.539344 -0.56231,-0.909844 -0.36844,-1.179074 0.4741,-0.65836 0.784,0.484543 1.67837,0.427247 1.98748,-0.12732 0.30911,-0.554569 0.35001,-0.182258 0.0909,0.827356 -0.25913,1.009616 0.28921,2.774791 1.21853,3.922612 1.37264,1.69538 1.36412,1.891139 -0.0454,1.043344 -1.24918,-0.751332 -1.11817,0.390583 0.46778,4.077388 1.21159,2.816546 3.13429,7.820992 4.27266,11.120991 1.13837,3.3 2.87787,7.18351 3.86555,8.63001 1.73298,2.53802 1.79947,2.5147 1.90105,-0.66667 0.0579,-1.81317 0.40135,-2.56632 0.76323,-1.67367 0.36187,0.89265 -1.17016,5.39265 -3.40453,10 -2.23437,4.60735 -4.07782,7.69979 -4.09656,6.87209 z M 52.666667,119.05469 C 34.849623,118.59432 33.315601,118.26818 28.023771,113.8154 l -4.181756,-3.51872 -4.346958,3.85166 c -2.390826,2.11841 -0.853482,0.47536 3.416322,-3.65124 4.269804,-4.12659 12.253433,-10.606937 17.741398,-14.400765 10.662592,-7.371044 38.544191,-22.283596 37.796171,-20.215388 -0.246921,0.682713 -4.047125,8.129886 -8.444899,16.549274 l -7.99595,15.307979 2.978621,6.1309 c 1.638243,3.37199 2.83642,6.00347 2.662617,5.84772 -0.173802,-0.15574 -6.916004,-0.4537 -14.98267,-0.66213 z M 144.21052,108 c 0,-1.83333 0.30264,-2.58333 0.67252,-1.66667 0.36988,0.91667 0.36988,2.41667 0,3.33334 -0.36988,0.91666 -0.67252,0.16666 -0.67252,-1.66667 z M 110.94743,64.801145 c 0.94558,-1.026036 1.92932,-1.665954 2.18608,-1.422041 0.79087,0.751279 -1.21351,3.287563 -2.5981,3.287563 -0.71897,0 -0.53356,-0.839484 0.41202,-1.865522 z m 10.1359,-4.37863 c 0.9625,-0.385162 2.1125,-0.337792 2.55556,0.105266 0.44305,0.443056 -0.34445,0.758188 -1.75,0.700294 -1.55326,-0.06397 -1.8692,-0.379922 -0.80556,-0.805556 z M 131.75,57.755848 c 0.9625,-0.385161 2.11249,-0.337792 2.55556,0.105267 0.44305,0.443056 -0.34445,0.758188 -1.75,0.700293 -1.55326,-0.06397 -1.8692,-0.379921 -0.80556,-0.805556 z m 12,-2.666667 c 0.96249,-0.385161 2.11249,-0.337792 2.55556,0.105267 0.44305,0.443056 -0.34445,0.758188 -1.75,0.700293 -1.55327,-0.06397 -1.8692,-0.379921 -0.80556,-0.805556 z m 5.33333,-1.333333 c 0.9625,-0.385161 2.1125,-0.337792 2.55556,0.105267 0.44306,0.443056 -0.34445,0.758188 -1.75,0.700293 -1.55326,-0.06397 -1.8692,-0.379921 -0.80556,-0.805556 z m 8,-1.333333 c 0.9625,-0.385162 2.1125,-0.337792 2.55556,0.105266 0.44306,0.443056 -0.34445,0.758188 -1.75,0.700294 -1.55326,-0.06397 -1.8692,-0.379922 -0.80556,-0.805556 z M 163.75,51.089181 c 0.96249,-0.385161 2.11249,-0.337792 2.55556,0.105267 0.44305,0.443056 -0.34445,0.758188 -1.75,0.700293 -1.55327,-0.06397 -1.8692,-0.379921 -0.80556,-0.805556 z M 173,49.783625 c 0.91667,-0.369882 2.41667,-0.369882 3.33333,0 0.91667,0.369884 0.16667,0.672515 -1.66666,0.672515 -1.83334,0 -2.58334,-0.302631 -1.66667,-0.672515 z m 8.68299,-1.372536 c 1.29232,-0.3371 1.94961,-1.260204 1.46065,-2.051342 -0.52853,-0.8552 -0.26484,-1.05269 0.65035,-0.48707 2.56262,1.583787 1.72905,3.470438 -1.46066,3.305988 -2.28298,-0.117706 -2.43841,-0.301157 -0.65034,-0.767576 z"
       id="path4207"
       inkscape:connector-curvature="0" />
    <path
       style="fill:none;stroke-width:1.33333337;fill-opacity:1;stroke:none;stroke-opacity:1"
       d="m 86.16722,151.66667 c -2.456479,-3.85 -8.816629,-14.9398 -14.133668,-24.64402 -6.988027,-12.75395 -9.450464,-18.48174 -8.884809,-20.66666 0.430394,-1.66246 5.011874,-10.758779 10.181068,-20.214039 5.169194,-9.455262 9.234657,-17.351823 9.034361,-17.547914 -0.200295,-0.196092 -6.622623,2.600351 -14.27184,6.214316 C 42.960649,86.682121 18.116452,105.53676 8,120.41334 c -1.8333333,2.69597 -3.6954029,4.90587 -4.1379324,4.91088 -0.4425293,0.005 -1.4925293,-4.15646 -2.3333333,-9.24773 C -3.7952196,83.838729 7.0664016,51.412816 30.789247,28.723164 60.371287,0.42949924 99.179773,-7.2422205 137.48439,7.6315085 153.20275,13.734967 170.82811,27.119269 179.87116,39.819071 l 2.85445,4.008696 -6.36281,0.879413 c -18.14768,2.508223 -56.94857,10.410256 -58.7588,11.966584 -0.42695,0.367065 4.13605,8.904747 11.0416,20.659569 C 137.47677,92.366027 144,105.40666 144,108.02844 c 0,3.47268 -7.33575,18.01464 -18.29013,36.25729 l -8.63549,14.38094 H 103.85396 90.633544 Z m 21.85116,-21.70305 11.17442,-22.116 -6.56893,-12.923811 c -3.6129,-7.108094 -6.44164,-13.955284 -6.28608,-15.215974 0.15557,-1.26069 1.7892,-5.414691 3.63031,-9.231111 3.2867,-6.813008 3.74607,-9.531135 1.0437,-6.175612 -2.12327,2.636457 -21.678467,41.938308 -21.678467,43.569188 0,0.79673 2.806918,7.49618 6.237595,14.88767 l 6.237592,13.43906 -4.237592,8.5934 c -4.680501,9.49156 -5.08102,10.90274 -2.482279,8.74597 0.965424,-0.80123 6.783801,-11.40899 12.929731,-23.57278 z"
       id="path4205"
       inkscape:connector-curvature="0" />
  </g>
</svg>
